<svg id="Layer_1" height="512" viewBox="0 0 128 128" width="512" xmlns="http://www.w3.org/2000/svg" data-name="Layer 1"><path d="m64 30.864a1.75 1.75 0 0 1 -1.75-1.75v-5.891a1.75 1.75 0 0 1 3.5 0v5.892a1.75 1.75 0 0 1 -1.75 1.749z" fill="#48578a"/><path d="m57.889 11h12.223v12.223h-12.223z" fill="#f86197"/><path d="m64 11h6.111v12.223h-6.111z" fill="#d75288"/><path d="m80 34.416a5.3 5.3 0 0 0 -5.3-5.3h-21.4a5.3 5.3 0 0 0 -5.3 5.3 5.3 5.3 0 0 1 -1.262 3.433l-1.726 2.03a5.3 5.3 0 0 0 -1.262 3.433v73.688h40.5v-73.687a5.3 5.3 0 0 0 -1.262-3.433l-1.726-2.03a5.3 5.3 0 0 1 -1.262-3.434z" fill="#48578a"/><path d="m74.7 29.114h-21.4a5.3 5.3 0 0 0 -5.3 5.3h32a5.3 5.3 0 0 0 -5.3-5.3z" fill="#fd9025"/><path d="m75.238 39.88-1.726-2.031a5.3 5.3 0 0 1 -1.262-3.433 5.3 5.3 0 0 0 -5.3-5.3h-13.65a5.3 5.3 0 0 0 -5.3 5.3 5.3 5.3 0 0 1 -1.262 3.433l-1.726 2.031a5.3 5.3 0 0 0 -1.262 3.433v73.687h32.75v-73.687a5.3 5.3 0 0 0 -1.262-3.433z" fill="#62739a"/><path d="m66.949 29.114h-13.649a5.3 5.3 0 0 0 -5.3 5.3h24.25a5.3 5.3 0 0 0 -5.301-5.3z" fill="#fdb556"/><path d="m107.348 118.643h-86.7a1.75 1.75 0 1 1 0-3.5h86.7a1.75 1.75 0 0 1 0 3.5z" fill="#48578a"/><path d="m43.75 50.207h20.25v52.576h-20.25z" fill="#e1f4fe"/><circle cx="64" cy="16.516" fill="#48578a" r="2.203"/><path d="m56.149 50.207h7.851v52.576h-7.851z" fill="#bcddfe"/></svg>