<svg id="Layer_1" height="512" viewBox="0 0 128 128" width="512" xmlns="http://www.w3.org/2000/svg" data-name="Layer 1"><path d="m93 20.535-29 3.316-29-3.316-24 4.9s14 4.193 21.667 12.6 21 14.82 31.333 14.82 23.667-6.417 31.333-14.82 21.667-12.596 21.667-12.596z" fill="#fbced3"/><path d="m84 13.106c-9.667-.667-20 6.589-20 6.589s-10.333-7.255-20-6.589-21 11-33 12.333c0 0 26 2.567 53 2.567s53-2.567 53-2.567c-12-1.333-23.333-11.666-33-12.333z" fill="#fce4e4"/><path d="m57.627 46.335a1.761 1.761 0 0 1 -.313-.028 36.832 36.832 0 0 1 -18.051-9.107 1.75 1.75 0 0 1 2.474-2.476 33.884 33.884 0 0 0 16.2 8.141 1.75 1.75 0 0 1 -.31 3.473z" fill="#fff"/><path d="m82.608 78.223h27.866v16.1h-27.866z" fill="#fdb556" transform="matrix(.957 -.291 .291 .957 -20.907 31.784)"/><path d="m117 114.937h-30.322l-4.799-15.797 34.004-10.329 1.117 3.676z" fill="#62739a"/><path d="m78.986 69.937h27.866v8.823h-27.866z" fill="#62739a" transform="matrix(.957 -.291 .291 .957 -17.598 30.216)"/><path d="m100.956 67.297-18.637 5.661-10.385-34.187 23.844 11.482z" fill="#d75288"/><ellipse cx="83.875" cy="44.575" fill="#f86197" rx="3.877" ry="13.332" transform="matrix(.471 -.882 .882 .471 5.045 97.564)"/><path d="m94.466 69.269 7.389 23.803 10.358-3.146-7.244-23.848z" fill="#fd9025"/><path d="m97.082 77.695 10.451-3.174-2.564-8.443-10.503 3.191z" fill="#48578a"/><path d="m113.909 114.937h3.091v-22.45l-1.117-3.676-9.487 2.882z" fill="#48578a"/><path d="m82.319 72.958 9-2.734-4.873-15.35s-11-5.706-14.034-14.6c-.028-.083-.059-.144-.088-.221z" fill="#f86197"/></svg>