<svg id="Layer_1" height="512" viewBox="0 0 128 128" width="512" xmlns="http://www.w3.org/2000/svg" data-name="Layer 1"><path d="m101.595 98.261h-19.859a6.1 6.1 0 0 1 -6.027-5.181l-.855-5.632h-21.708l-.855 5.632a6.1 6.1 0 0 1 -6.027 5.181h-19.859a13.154 13.154 0 0 0 -12.588 9.339l-2.817 9.293h106l-2.817-9.294a13.154 13.154 0 0 0 -12.588-9.338z" fill="#fbced3"/><path d="m85.845 98.261h-19.858a6.1 6.1 0 0 1 -6.027-5.181l-.86-5.632h-5.954l-.855 5.632a6.1 6.1 0 0 1 -6.027 5.181h-19.859a13.154 13.154 0 0 0 -12.588 9.339l-2.817 9.293h90.25l-2.817-9.293a13.154 13.154 0 0 0 -12.588-9.339z" fill="#fce4e4"/><circle cx="64.194" cy="63.454" fill="#9edb2c" r="30.559"/><path d="m60.16 33.169a30.552 30.552 0 0 0 0 60.571 30.552 30.552 0 0 0 0-60.571z" fill="#c4e83b"/><path d="m33.635 63.454a30.552 30.552 0 0 1 50.275-23.34 31.308 31.308 0 1 0 -50 27.357 30.8 30.8 0 0 1 -.275-4.017z" fill="#f86197"/><path d="m102.855 47.729a30.114 30.114 0 0 0 -30.114-30.114c-.3 0-.594.03-.892.039a31.273 31.273 0 0 1 12.061 22.46 30.5 30.5 0 0 1 10.375 28.647 30.009 30.009 0 0 0 8.57-21.032z" fill="#d75288"/><circle cx="51.62" cy="57.022" fill="#fbced3" r="7.874"/><circle cx="76.769" cy="57.022" fill="#fbced3" r="7.874"/><path d="m53.633 58.771h-4.186a1.75 1.75 0 0 1 0-3.5h4.187a1.75 1.75 0 0 1 0 3.5z" fill="#48578a"/><path d="m79.228 58.771h-4.187a1.75 1.75 0 0 1 0-3.5h4.187a1.75 1.75 0 0 1 0 3.5z" fill="#48578a"/><ellipse cx="64.194" cy="78.322" fill="#fbced3" rx="10.121" ry="8.148"/><path d="m69.014 80.072h-9.639a1.75 1.75 0 0 1 0-3.5h9.639a1.75 1.75 0 0 1 0 3.5z" fill="#48578a"/></svg>