<?xml version="1.0" encoding="UTF-8" standalone="no"?>
<!DOCTYPE svg PUBLIC "-//W3C//DTD SVG 1.1//EN" "http://www.w3.org/Graphics/SVG/1.1/DTD/svg11.dtd">
<svg version="1.1" xmlns="http://www.w3.org/2000/svg" xmlns:xlink="http://www.w3.org/1999/xlink" preserveAspectRatio="xMidYMid meet" viewBox="0 0 640 640" width="640" height="640"><defs><path d="M117.65 0.12L119.05 0.25L120.44 0.43L121.83 0.66L123.2 0.94L124.56 1.28L125.91 1.66L127.25 2.1L128.57 2.58L129.87 3.11L131.16 3.7L132.42 4.33L133.66 5.01L134.88 5.74L136.07 6.51L137.23 7.33L138.37 8.2L139.48 9.12L140.55 10.08L141.59 11.09L142.6 12.15L143.58 13.25L144.51 14.39L145.41 15.58L146.26 16.82L232.65 146.35L233.44 147.6L234.17 148.86L234.85 150.14L235.48 151.44L236.05 152.75L236.57 154.08L237.04 155.42L237.45 156.77L237.82 158.13L238.13 159.49L238.39 160.87L238.59 162.24L238.75 163.63L238.85 165.01L238.91 166.39L238.91 167.78L238.86 169.16L238.77 170.54L238.62 171.91L238.42 173.28L238.18 174.63L237.88 175.98L237.54 177.32L237.14 178.64L236.7 179.96L236.21 181.25L235.67 182.53L235.09 183.79L234.45 185.03L233.77 186.25L233.05 187.45L232.27 188.63L231.45 189.78L230.58 190.9L229.67 191.99L228.71 193.05L227.7 194.09L226.65 195.09L225.56 196.05L224.42 196.98L175.93 234.7L175.46 235.08L175.01 235.46L174.57 235.87L174.15 236.28L173.75 236.71L173.37 237.15L173 237.6L172.65 238.06L172.32 238.54L172.01 239.02L171.72 239.51L171.44 240.02L171.19 240.53L170.95 241.04L170.73 241.57L170.53 242.1L170.35 242.64L170.19 243.18L170.04 243.73L169.92 244.28L169.82 244.84L169.73 245.4L169.67 245.96L169.62 246.53L169.59 247.1L169.59 247.67L169.6 248.24L169.64 248.8L169.69 249.37L169.77 249.94L169.86 250.51L169.98 251.07L170.12 251.64L170.27 252.2L170.45 252.75L170.65 253.3L170.87 253.85L171.12 254.39L171.38 254.93L171.67 255.46L175.6 262.63L176.58 264.43L177.58 266.24L178.59 268.09L179.63 269.96L180.7 271.86L181.79 273.8L182.92 275.77L184.09 277.78L185.3 279.83L186.56 281.93L187.87 284.06L189.23 286.25L190.65 288.48L192.13 290.77L193.67 293.11L195.28 295.5L196.97 297.96L198.73 300.47L200.57 303.05L202.5 305.69L204.51 308.4L206.61 311.18L208.81 314.03L211.11 316.95L213.51 319.95L216.02 323.03L218.63 326.2L221.37 329.44L224.21 332.77L227.19 336.19L230.28 339.69L233.51 343.29L236.86 346.99L240.36 350.78L243.99 354.67L247.77 358.66L251.7 362.76L255.77 366.96L260.01 371.26L264.4 375.68L268.82 380.08L273.13 384.31L277.33 388.39L281.42 392.32L285.41 396.1L289.3 399.73L293.09 403.23L296.78 406.59L300.38 409.81L303.88 412.91L307.3 415.88L310.63 418.73L313.87 421.46L317.03 424.07L320.11 426.58L323.11 428.98L326.03 431.28L328.88 433.48L331.66 435.58L334.37 437.59L337.01 439.52L339.59 441.36L342.1 443.12L344.56 444.8L346.95 446.41L349.29 447.96L351.58 449.43L353.81 450.85L356 452.21L358.14 453.52L360.23 454.77L362.28 455.99L364.29 457.15L366.27 458.28L368.21 459.38L370.11 460.44L371.99 461.48L373.83 462.5L375.65 463.49L377.45 464.47L384.63 468.43L385.16 468.71L385.69 468.97L386.23 469.21L386.78 469.42L387.33 469.62L387.89 469.8L388.45 469.95L389.01 470.08L389.57 470.2L390.14 470.29L390.7 470.36L391.27 470.41L391.84 470.44L392.41 470.45L392.97 470.45L393.54 470.42L394.1 470.37L394.67 470.3L395.22 470.21L395.78 470.11L396.33 469.98L396.88 469.84L397.42 469.67L397.95 469.49L398.48 469.29L399 469.07L399.52 468.83L400.03 468.57L400.53 468.29L401.02 468L401.5 467.69L401.97 467.36L402.43 467.01L402.88 466.64L403.31 466.26L403.74 465.86L404.15 465.44L404.55 465L404.94 464.55L405.31 464.08L443.04 415.56L443.97 414.42L444.94 413.32L445.94 412.27L446.97 411.27L448.03 410.31L449.12 409.39L450.25 408.52L451.39 407.7L452.57 406.93L453.77 406.2L454.99 405.52L456.23 404.89L457.49 404.3L458.77 403.76L460.07 403.27L461.38 402.83L462.7 402.44L464.04 402.09L465.39 401.8L466.75 401.55L468.11 401.36L469.49 401.21L470.86 401.11L472.25 401.07L473.63 401.07L475.01 401.12L476.4 401.23L477.78 401.39L479.16 401.59L480.53 401.85L481.9 402.16L483.26 402.53L484.61 402.94L485.94 403.41L487.27 403.93L488.58 404.51L489.88 405.13L491.16 405.82L492.42 406.55L493.67 407.34L623.21 493.73L624.44 494.58L625.63 495.48L626.78 496.41L627.88 497.39L628.93 498.4L629.94 499.44L630.9 500.52L631.82 501.62L632.69 502.76L633.51 503.93L634.29 505.12L635.02 506.34L635.7 507.58L636.33 508.84L636.91 510.12L637.44 511.43L637.93 512.75L638.36 514.08L638.75 515.44L639.08 516.8L639.36 518.18L639.59 519.56L639.77 520.96L639.9 522.36L639.98 523.76L640 525.17L639.97 526.58L639.89 528L639.75 529.41L639.56 530.82L639.31 532.22L639.01 533.62L638.66 535.02L638.25 536.4L637.78 537.78L637.26 539.14L636.68 540.49L636.05 541.83L635.36 543.15L634.61 544.45L602.04 598.58L601.28 599.85L600.49 601.1L599.68 602.34L598.85 603.55L598 604.75L597.13 605.93L596.23 607.09L595.32 608.23L594.38 609.36L593.43 610.46L592.45 611.55L591.45 612.61L590.44 613.66L589.4 614.68L588.35 615.69L587.28 616.67L586.18 617.63L585.08 618.57L583.95 619.49L582.81 620.39L581.65 621.27L580.47 622.12L579.28 622.95L578.07 623.76L576.84 624.55L575.6 625.31L574.35 626.05L573.08 626.77L571.8 627.46L570.5 628.13L569.19 628.77L567.86 629.39L566.52 629.99L565.17 630.55L563.81 631.1L562.43 631.62L561.05 632.11L559.65 632.57L558.24 633.01L556.82 633.43L555.59 633.75L554.36 634.07L553.13 634.38L551.9 634.69L550.67 634.98L549.43 635.27L548.19 635.54L546.95 635.81L545.71 636.07L544.47 636.32L543.23 636.57L541.98 636.8L540.74 637.03L539.49 637.25L538.24 637.46L536.99 637.66L535.74 637.86L534.48 638.04L533.23 638.22L531.97 638.39L530.72 638.54L529.46 638.7L528.2 638.84L526.94 638.97L525.68 639.1L524.42 639.22L523.16 639.33L521.89 639.43L520.63 639.52L519.37 639.6L518.1 639.68L516.84 639.75L515.57 639.8L514.3 639.85L513.03 639.9L511.77 639.93L510.5 639.95L509.23 639.97L507.96 639.98L506.69 639.98L501.11 639.9L495.41 639.68L489.58 639.29L483.62 638.75L477.54 638.03L471.33 637.14L464.99 636.07L458.52 634.81L451.93 633.35L445.21 631.69L438.36 629.82L431.38 627.75L424.27 625.45L417.03 622.92L409.66 620.17L402.17 617.17L394.54 613.93L386.78 610.44L378.89 606.69L370.87 602.68L362.72 598.4L354.43 593.85L346.02 589.01L337.47 583.89L328.79 578.47L319.97 572.74L311.02 566.72L301.94 560.38L292.72 553.72L283.37 546.73L273.89 539.41L264.27 531.76L254.51 523.76L244.62 515.41L234.59 506.7L224.43 497.63L214.13 488.19L203.69 478.38L193.12 468.19L182.41 457.6L169.17 444.16L156.53 430.93L144.5 417.92L133.05 405.12L122.17 392.54L111.86 380.18L102.09 368.03L92.86 356.09L84.16 344.37L75.96 332.85L68.26 321.55L61.05 310.46L54.32 299.58L48.04 288.91L42.22 278.45L36.83 268.2L31.87 258.16L27.32 248.32L23.17 238.69L19.41 229.27L16.02 220.05L13 211.04L10.32 202.23L7.99 193.62L5.98 185.22L4.28 177.02L2.89 169.03L1.78 161.23L0.96 153.63L0.39 146.24L0.08 139.04L0 132.05L0.16 125.25L0.53 118.65L1.1 112.24L1.86 106.04L2.8 100.03L3.9 94.21L5.15 88.59L6.55 83.16L6.97 81.74L7.41 80.33L7.87 78.93L8.36 77.55L8.88 76.17L9.43 74.81L10 73.46L10.59 72.12L11.21 70.8L11.85 69.48L12.52 68.19L13.21 66.9L13.93 65.63L14.67 64.38L15.43 63.14L16.22 61.91L17.03 60.71L17.86 59.51L18.71 58.34L19.59 57.18L20.49 56.03L21.41 54.91L22.35 53.8L23.31 52.71L24.3 51.63L25.3 50.58L26.33 49.55L27.37 48.53L28.44 47.53L29.52 46.56L30.62 45.6L31.75 44.66L32.89 43.75L34.05 42.85L35.23 41.98L36.43 41.13L37.64 40.3L38.88 39.49L40.13 38.7L41.39 37.94L95.56 5.4L96.86 4.65L98.18 3.96L99.52 3.33L100.87 2.75L102.23 2.23L103.61 1.77L104.99 1.36L106.38 1L107.78 0.71L109.19 0.46L110.6 0.27L112.01 0.13L113.42 0.05L114.83 0.02L116.24 0.05L117.65 0.12ZM113.67 21.45L113.06 21.51L112.45 21.59L111.84 21.7L111.23 21.83L110.63 21.98L110.03 22.16L109.43 22.36L108.84 22.59L108.25 22.84L107.67 23.11L107.1 23.41L106.54 23.74L52.37 56.23L51.45 56.78L50.55 57.34L49.66 57.93L48.78 58.52L47.91 59.13L47.06 59.76L46.22 60.41L45.39 61.07L44.58 61.74L43.78 62.43L43 63.13L42.23 63.85L41.47 64.58L40.73 65.33L40 66.08L39.29 66.86L38.59 67.64L37.91 68.44L37.24 69.25L36.59 70.07L35.96 70.91L35.34 71.76L34.74 72.62L34.15 73.49L33.58 74.37L33.03 75.26L32.49 76.17L31.97 77.08L31.47 78.01L30.98 78.94L30.51 79.89L30.06 80.84L29.63 81.81L29.22 82.78L28.82 83.76L28.45 84.76L28.09 85.76L27.75 86.76L27.43 87.78L27.12 88.8L25.84 93.82L24.69 99.02L23.68 104.4L22.83 109.97L22.16 115.73L21.67 121.67L21.37 127.81L21.27 134.14L21.4 140.65L21.75 147.36L22.35 154.26L23.2 161.36L24.31 168.65L25.7 176.14L27.38 183.82L29.36 191.7L31.65 199.78L34.26 208.06L37.21 216.54L40.51 225.22L44.16 234.1L48.19 243.18L52.6 252.47L57.4 261.97L62.61 271.67L68.24 281.58L74.29 291.69L80.79 302.01L87.75 312.55L95.16 323.29L103.06 334.25L111.44 345.41L120.32 356.8L129.72 368.39L139.63 380.2L150.09 392.23L161.09 404.47L172.65 416.93L184.78 429.61L197.5 442.51L210.4 455.23L223.08 467.36L235.54 478.92L247.78 489.92L259.81 500.38L271.62 510.29L283.22 519.69L294.6 528.57L305.76 536.95L316.72 544.85L327.46 552.26L338 559.22L348.32 565.72L358.44 571.77L368.34 577.4L378.05 582.61L387.54 587.41L396.83 591.82L405.92 595.85L414.8 599.5L423.48 602.8L431.96 605.75L440.24 608.36L448.32 610.66L456.2 612.63L463.88 614.31L471.37 615.7L478.66 616.82L485.75 617.66L492.65 618.26L499.36 618.61L505.88 618.74L512.2 618.64L518.34 618.35L524.28 617.85L530.04 617.18L535.61 616.33L541 615.33L546.19 614.17L551.21 612.89L552.23 612.59L553.24 612.26L554.25 611.93L555.25 611.57L556.24 611.19L557.22 610.8L558.19 610.38L559.16 609.95L560.11 609.5L561.05 609.03L561.99 608.55L562.91 608.05L563.83 607.53L564.73 606.99L565.62 606.44L566.5 605.87L567.37 605.28L568.23 604.68L569.08 604.06L569.91 603.43L570.73 602.78L571.54 602.11L572.34 601.43L573.13 600.74L573.9 600.03L574.65 599.3L575.4 598.56L576.13 597.8L576.85 597.03L577.55 596.25L578.24 595.45L578.91 594.64L579.57 593.82L580.21 592.98L580.84 592.13L581.45 591.26L582.04 590.38L582.62 589.49L583.19 588.59L583.73 587.67L616.23 533.51L616.56 532.94L616.86 532.37L617.13 531.79L617.38 531.2L617.61 530.61L617.81 530.02L617.99 529.41L618.14 528.81L618.27 528.2L618.38 527.59L618.46 526.98L618.52 526.37L618.56 525.76L618.57 525.14L618.56 524.53L618.53 523.92L618.47 523.31L618.4 522.71L618.3 522.11L618.17 521.51L618.03 520.92L617.86 520.33L617.67 519.75L617.46 519.18L617.23 518.62L616.98 518.06L616.71 517.51L616.41 516.97L616.1 516.44L615.76 515.93L615.4 515.42L615.02 514.93L614.63 514.45L614.21 513.98L613.77 513.53L613.31 513.09L612.83 512.67L612.34 512.26L611.82 511.88L611.28 511.5L481.76 425.12L481.22 424.78L480.67 424.46L480.11 424.16L479.55 423.89L478.98 423.64L478.41 423.42L477.82 423.21L477.24 423.03L476.65 422.87L476.06 422.74L475.46 422.63L474.86 422.54L474.26 422.47L473.66 422.42L473.06 422.4L472.46 422.4L471.86 422.42L471.26 422.46L470.67 422.52L470.08 422.61L469.49 422.72L468.9 422.84L468.32 422.99L467.75 423.16L467.18 423.35L466.61 423.57L466.06 423.8L465.51 424.05L464.97 424.33L464.44 424.62L463.92 424.94L463.41 425.27L462.92 425.63L462.43 426.01L461.95 426.4L461.49 426.82L461.04 427.25L460.61 427.71L460.19 428.18L459.79 428.68L422.06 477.17L421.2 478.26L420.31 479.31L419.38 480.31L418.42 481.28L417.43 482.21L416.42 483.09L415.37 483.94L414.3 484.74L413.21 485.5L412.1 486.22L410.96 486.9L409.8 487.53L408.63 488.13L407.43 488.68L406.22 489.18L404.99 489.64L403.75 490.06L402.5 490.44L401.23 490.77L399.96 491.06L398.67 491.3L397.38 491.5L396.08 491.65L394.77 491.75L393.46 491.81L392.15 491.83L390.83 491.8L389.52 491.72L388.2 491.59L386.89 491.42L385.58 491.2L384.28 490.94L382.98 490.62L381.69 490.26L380.4 489.85L379.13 489.39L377.87 488.88L376.62 488.32L375.38 487.72L374.16 487.06L367.15 483.2L365.26 482.17L363.35 481.12L361.41 480.06L359.45 478.97L357.45 477.85L355.41 476.7L353.34 475.52L351.23 474.29L349.08 473.02L346.88 471.7L344.64 470.34L342.35 468.91L340.01 467.43L337.61 465.88L335.16 464.27L332.66 462.59L330.09 460.83L327.46 458.99L324.77 457.07L322.01 455.07L319.18 452.97L316.28 450.78L313.3 448.49L310.25 446.1L307.12 443.6L303.91 440.99L300.62 438.27L297.24 435.43L293.78 432.47L290.22 429.39L286.57 426.17L282.83 422.82L278.99 419.34L275.05 415.71L271.01 411.94L266.87 408.02L262.62 403.94L258.26 399.71L253.79 395.32L249.21 390.76L244.65 386.18L240.26 381.71L236.03 377.36L231.95 373.11L228.03 368.96L224.26 364.92L220.63 360.98L217.14 357.14L213.79 353.4L210.58 349.75L207.49 346.2L204.53 342.73L201.69 339.35L198.97 336.06L196.36 332.85L193.86 329.72L191.47 326.67L189.18 323.69L186.99 320.79L184.89 317.96L182.89 315.2L180.97 312.51L179.13 309.88L177.37 307.31L175.69 304.81L174.07 302.36L172.53 299.96L171.05 297.62L169.62 295.33L168.26 293.09L166.94 290.89L165.67 288.74L164.44 286.63L163.26 284.55L162.11 282.52L160.99 280.52L159.9 278.55L158.84 276.61L157.79 274.69L156.76 272.81L152.91 265.81L152.25 264.59L151.65 263.35L151.09 262.1L150.58 260.84L150.12 259.56L149.71 258.28L149.35 256.99L149.03 255.69L148.77 254.39L148.55 253.08L148.37 251.76L148.25 250.45L148.17 249.13L148.14 247.82L148.15 246.51L148.21 245.2L148.32 243.89L148.47 242.59L148.67 241.3L148.91 240.01L149.2 238.74L149.53 237.47L149.9 236.22L150.32 234.98L150.79 233.75L151.29 232.54L151.84 231.34L152.43 230.17L153.07 229.01L153.75 227.87L154.47 226.76L155.23 225.66L156.03 224.6L156.88 223.55L157.76 222.54L158.69 221.55L159.65 220.59L160.66 219.66L161.71 218.77L162.8 217.9L211.29 180.18L211.78 179.78L212.26 179.36L212.72 178.93L213.15 178.48L213.57 178.02L213.96 177.54L214.34 177.05L214.7 176.56L215.03 176.05L215.35 175.53L215.64 175L215.92 174.46L216.17 173.91L216.41 173.35L216.62 172.79L216.81 172.22L216.98 171.65L217.13 171.07L217.26 170.48L217.36 169.89L217.45 169.3L217.51 168.7L217.55 168.11L217.57 167.51L217.57 166.91L217.55 166.31L217.5 165.7L217.43 165.11L217.34 164.51L217.23 163.91L217.1 163.32L216.94 162.73L216.76 162.14L216.56 161.56L216.33 160.99L216.08 160.42L215.81 159.85L215.51 159.3L215.19 158.75L214.85 158.21L175.47 99.14L128.54 28.68L128.17 28.15L127.78 27.63L127.37 27.14L126.95 26.66L126.51 26.2L126.06 25.76L125.59 25.35L125.11 24.95L124.62 24.57L124.11 24.21L123.6 23.88L123.07 23.56L122.53 23.27L121.98 22.99L121.43 22.74L120.86 22.51L120.29 22.3L119.71 22.11L119.12 21.94L118.53 21.8L117.93 21.68L117.33 21.58L116.73 21.5L116.12 21.44L115.51 21.41L114.9 21.4L114.29 21.41L113.67 21.45Z" id="a6YHIRByP"></path><path d="M610.57 128.16L611.86 128.29L613.13 128.47L614.39 128.7L615.63 128.98L616.86 129.31L618.06 129.68L619.24 130.1L620.4 130.57L621.54 131.07L622.65 131.62L623.74 132.21L624.8 132.85L625.83 133.52L626.84 134.23L627.82 134.97L628.77 135.75L629.68 136.57L630.57 137.42L631.42 138.31L632.24 139.23L633.02 140.17L633.77 141.15L634.48 142.16L635.15 143.19L635.78 144.26L636.37 145.34L636.92 146.46L637.43 147.59L637.89 148.75L638.31 149.93L638.68 151.14L639.01 152.36L639.29 153.6L639.52 154.86L639.7 156.13L639.83 157.42L639.91 158.73L639.94 160.05L639.94 266.7L639.91 268.02L639.83 269.32L639.7 270.61L639.52 271.89L639.29 273.15L639.01 274.39L638.68 275.61L638.31 276.81L637.89 277.99L637.43 279.15L636.92 280.29L636.37 281.4L635.78 282.49L635.15 283.55L634.48 284.59L633.77 285.59L633.02 286.57L632.24 287.52L631.42 288.44L630.57 289.32L629.68 290.17L628.77 290.99L627.82 291.77L626.84 292.52L625.83 293.23L624.8 293.9L623.74 294.53L622.65 295.12L621.54 295.67L620.4 296.18L619.24 296.64L618.06 297.06L616.86 297.44L615.63 297.76L614.39 298.04L613.13 298.27L611.86 298.46L610.57 298.59L609.26 298.67L607.94 298.69L559.03 298.69L498.17 359.56L497.94 359.78L497.7 360L497.46 360.21L497.21 360.41L496.96 360.6L496.7 360.79L496.44 360.96L496.17 361.13L495.9 361.29L495.63 361.44L495.35 361.58L495.07 361.71L494.78 361.84L494.49 361.96L494.2 362.07L493.91 362.17L493.61 362.26L493.31 362.34L493.01 362.41L492.71 362.48L492.4 362.53L492.1 362.58L491.79 362.62L491.48 362.65L491.17 362.67L490.86 362.68L490.55 362.68L490.24 362.67L489.93 362.66L489.62 362.63L489.3 362.6L488.99 362.56L488.68 362.5L488.37 362.44L488.07 362.37L487.76 362.29L487.45 362.2L487.15 362.1L486.85 361.99L486.55 361.87L486.25 361.74L485.96 361.61L485.68 361.46L485.4 361.31L485.12 361.15L484.85 360.98L484.59 360.81L484.33 360.63L484.08 360.44L483.84 360.24L483.6 360.04L483.37 359.83L483.14 359.61L482.93 359.39L482.71 359.17L482.51 358.93L482.31 358.69L482.12 358.45L481.94 358.2L481.76 357.94L481.59 357.68L481.43 357.42L481.28 357.15L481.13 356.87L481 356.6L480.87 356.31L480.75 356.03L480.63 355.74L480.53 355.44L480.43 355.15L480.35 354.85L480.27 354.54L480.2 354.23L480.14 353.93L480.08 353.61L480.04 353.3L480.01 352.98L479.98 352.66L479.97 352.34L479.96 352.02L479.96 298.69L437.3 298.69L435.98 298.67L434.68 298.59L433.39 298.46L432.11 298.27L430.86 298.04L429.61 297.76L428.39 297.44L427.19 297.06L426.01 296.64L424.85 296.18L423.71 295.67L422.6 295.12L421.51 294.53L420.45 293.9L419.41 293.23L418.41 292.52L417.43 291.77L416.48 290.99L415.56 290.17L414.68 289.32L413.83 288.44L413.01 287.52L412.23 286.57L411.48 285.59L410.77 284.59L410.1 283.55L409.47 282.49L408.88 281.4L408.33 280.29L407.82 279.15L407.36 277.99L406.94 276.81L406.57 275.61L406.24 274.39L405.96 273.15L405.73 271.89L405.55 270.61L405.41 269.32L405.34 268.02L405.31 266.7L405.31 160.05L405.34 158.73L405.41 157.42L405.55 156.13L405.73 154.86L405.96 153.6L406.24 152.36L406.57 151.14L406.94 149.93L407.36 148.75L407.82 147.59L408.33 146.46L408.88 145.34L409.47 144.26L410.1 143.19L410.77 142.16L411.48 141.15L412.23 140.17L413.01 139.23L413.83 138.31L414.68 137.42L415.56 136.57L416.48 135.75L417.43 134.97L418.41 134.23L419.42 133.52L420.45 132.85L421.51 132.21L422.6 131.62L423.71 131.07L424.85 130.57L426.01 130.1L427.19 129.68L428.39 129.31L429.62 128.98L430.86 128.7L432.11 128.47L433.39 128.29L434.68 128.16L435.99 128.08L437.3 128.05L607.94 128.05L609.26 128.08L610.57 128.16ZM437.01 149.39L436.72 149.41L436.43 149.44L436.14 149.49L435.85 149.55L435.56 149.62L435.28 149.71L434.99 149.81L434.71 149.92L434.43 150.05L434.15 150.19L433.87 150.34L433.59 150.51L433.32 150.69L433.04 150.88L432.77 151.09L432.5 151.31L432.23 151.54L431.96 151.79L431.69 152.05L431.42 152.32L431.16 152.61L430.9 152.91L430.64 153.22L430.38 153.55L430.12 153.89L429.86 154.24L429.6 154.61L429.35 154.99L429.09 155.38L428.84 155.79L428.59 156.21L428.34 156.64L428.09 157.09L427.85 157.55L427.6 158.02L427.36 158.51L427.12 159.01L426.88 159.52L426.64 160.05L426.64 266.7L426.65 267.14L426.67 267.57L426.72 268L426.78 268.43L426.85 268.85L426.95 269.26L427.06 269.67L427.18 270.07L427.32 270.46L427.47 270.85L427.64 271.23L427.83 271.6L428.02 271.96L428.23 272.31L428.46 272.66L428.69 272.99L428.94 273.32L429.2 273.64L429.48 273.94L429.76 274.24L430.06 274.52L430.36 274.79L430.68 275.05L431 275.3L431.34 275.54L431.68 275.76L432.04 275.97L432.4 276.17L432.77 276.35L433.15 276.52L433.54 276.68L433.93 276.82L434.33 276.94L434.74 277.05L435.15 277.14L435.57 277.22L436 277.28L436.43 277.33L436.86 277.35L437.3 277.36L490.63 277.36L491.07 277.37L491.5 277.4L491.93 277.44L492.36 277.5L492.78 277.58L493.19 277.67L493.6 277.78L494 277.9L494.39 278.04L494.78 278.2L495.16 278.37L495.53 278.55L495.89 278.75L496.24 278.96L496.59 279.18L496.93 279.42L497.25 279.67L497.57 279.93L497.87 280.2L498.17 280.48L498.45 280.78L498.72 281.09L498.99 281.4L499.23 281.73L499.47 282.06L499.69 282.41L499.9 282.76L500.1 283.12L500.28 283.5L500.45 283.87L500.61 284.26L500.75 284.65L500.87 285.06L500.98 285.46L501.08 285.88L501.15 286.3L501.21 286.72L501.26 287.15L501.28 287.59L501.29 288.03L501.29 326.27L547.08 280.49L547.23 280.34L547.38 280.19L547.54 280.05L547.7 279.91L547.86 279.78L548.02 279.65L548.19 279.52L548.36 279.39L548.53 279.27L548.7 279.15L548.88 279.04L549.05 278.93L549.23 278.82L549.41 278.72L549.6 278.62L549.78 278.52L549.97 278.43L550.16 278.34L550.35 278.26L550.54 278.17L550.73 278.1L550.92 278.02L551.12 277.95L551.32 277.89L551.52 277.82L551.72 277.76L551.92 277.71L552.12 277.66L552.32 277.61L552.53 277.57L552.73 277.53L552.94 277.49L553.15 277.46L553.35 277.44L553.56 277.41L553.77 277.39L553.98 277.38L554.19 277.37L554.41 277.36L554.62 277.36L607.94 277.36L608.38 277.35L608.82 277.33L609.25 277.28L609.67 277.22L610.09 277.14L610.51 277.05L610.91 276.94L611.31 276.82L611.71 276.68L612.09 276.52L612.47 276.35L612.84 276.17L613.21 275.97L613.56 275.76L613.91 275.54L614.24 275.3L614.57 275.06L614.88 274.79L615.19 274.52L615.48 274.24L615.77 273.94L616.04 273.64L616.3 273.32L616.55 273L616.79 272.66L617.01 272.31L617.22 271.96L617.42 271.6L617.6 271.23L617.77 270.85L617.92 270.46L618.06 270.07L618.19 269.67L618.3 269.26L618.39 268.85L618.47 268.43L618.53 268L618.57 267.57L618.6 267.14L618.61 266.7L618.61 160.05L618.6 159.61L618.57 159.17L618.53 158.74L618.47 158.32L618.39 157.9L618.3 157.48L618.19 157.08L618.06 156.68L617.92 156.28L617.77 155.89L617.6 155.52L617.42 155.15L617.22 154.78L617.01 154.43L616.79 154.08L616.55 153.75L616.3 153.42L616.04 153.11L615.77 152.8L615.48 152.51L615.19 152.22L614.88 151.95L614.57 151.69L614.24 151.44L613.91 151.2L613.56 150.98L613.21 150.77L612.84 150.57L612.47 150.39L612.09 150.22L611.71 150.07L611.31 149.93L610.91 149.8L610.51 149.69L610.09 149.6L609.67 149.52L609.25 149.46L608.82 149.42L608.38 149.39L607.94 149.38L437.3 149.38L437.01 149.39Z" id="c8vAEC01A"></path><path d="M511.96 224.04C517.85 224.04 522.62 219.26 522.62 213.37C522.62 207.48 517.85 202.71 511.96 202.71C506.63 202.71 463.97 202.71 458.63 202.71C452.74 202.71 447.97 207.48 447.97 213.37C447.97 219.26 452.74 224.04 458.63 224.04C469.3 224.04 506.63 224.04 511.96 224.04Z" id="a1lTeHoWXc"></path><path d="M586.61 224.04C592.5 224.04 597.28 219.26 597.28 213.37C597.28 207.48 592.5 202.71 586.61 202.71C583.41 202.71 557.82 202.71 554.62 202.71C548.73 202.71 543.95 207.48 543.95 213.37C543.95 219.26 548.73 224.04 554.62 224.04C561.02 224.04 583.41 224.04 586.61 224.04Z" id="l134rTY1uv"></path></defs><g><g><g><use xlink:href="#a6YHIRByP" opacity="1" fill="#177b25" fill-opacity="1"></use><g><use xlink:href="#a6YHIRByP" opacity="1" fill-opacity="0" stroke="#000000" stroke-width="1" stroke-opacity="0"></use></g></g><g><use xlink:href="#c8vAEC01A" opacity="1" fill="#177b25" fill-opacity="1"></use><g><use xlink:href="#c8vAEC01A" opacity="1" fill-opacity="0" stroke="#000000" stroke-width="1" stroke-opacity="0"></use></g></g><g><use xlink:href="#a1lTeHoWXc" opacity="1" fill="#177b25" fill-opacity="1"></use><g><use xlink:href="#a1lTeHoWXc" opacity="1" fill-opacity="0" stroke="#000000" stroke-width="1" stroke-opacity="0"></use></g></g><g><use xlink:href="#l134rTY1uv" opacity="1" fill="#177b25" fill-opacity="1"></use><g><use xlink:href="#l134rTY1uv" opacity="1" fill-opacity="0" stroke="#000000" stroke-width="1" stroke-opacity="0"></use></g></g></g></g></svg>