<svg id="Layer_1" height="512" viewBox="0 0 128 128" width="512" xmlns="http://www.w3.org/2000/svg" data-name="Layer 1"><path d="m46.964 56.583a17.036 17.036 0 0 1 17.036 17.036v43.381a0 0 0 0 1 0 0h-34.073a0 0 0 0 1 0 0v-43.381a17.036 17.036 0 0 1 17.037-17.036z" fill="#fbced3"/><path d="m42.38 57.225a17.03 17.03 0 0 0 -12.453 16.394v43.381h24.906v-43.381a17.03 17.03 0 0 0 -12.453-16.394z" fill="#fce4e4"/><path d="m81.036 45.14a17.036 17.036 0 0 1 17.037 17.037v54.823a0 0 0 0 1 0 0h-34.073a0 0 0 0 1 0 0v-54.823a17.036 17.036 0 0 1 17.036-17.037z" fill="#fbced3"/><path d="m76.536 45.761a17.029 17.029 0 0 0 -12.536 16.416v54.823h25.073v-54.823a17.029 17.029 0 0 0 -12.537-16.416z" fill="#fce4e4"/><path d="m35.292 45.443h23.343a0 0 0 0 1 0 0v29.677a11.671 11.671 0 0 1 -11.671 11.672 11.671 11.671 0 0 1 -11.672-11.672v-29.677a0 0 0 0 1 0 0z" fill="#bcddfe"/><path d="m69.365 34h23.343a0 0 0 0 1 0 0v29.677a11.671 11.671 0 0 1 -11.672 11.672 11.671 11.671 0 0 1 -11.671-11.672v-29.677a0 0 0 0 1 0 0z" fill="#bcddfe"/><path d="m46.964 86.792a11.671 11.671 0 0 1 -11.672-11.672v4.92a11.671 11.671 0 0 0 11.672 11.672 11.671 11.671 0 0 0 11.671-11.672v-4.92a11.671 11.671 0 0 1 -11.671 11.672z" fill="#fbced3"/><path d="m81.036 75.349a11.671 11.671 0 0 1 -11.671-11.672v4.923a11.671 11.671 0 0 0 11.671 11.669 11.671 11.671 0 0 0 11.672-11.669v-4.92a11.671 11.671 0 0 1 -11.672 11.669z" fill="#fbced3"/><path d="m92.708 34v8.389a9.994 9.994 0 0 1 -5.708 1.95c-10.642.461-10.528 10.871-10.528 10.871v3.554a3.554 3.554 0 0 1 -7.108 0v-24.764z" fill="#d75288"/><path d="m100 18.083 17-3v12.5l-17-3z" fill="#62739a"/><path d="m42.955 18.083h57.045v6.5h-57.045z" fill="#e1f4fe" transform="matrix(-1 0 0 -1 142.955 42.667)"/><path d="m11 11h21.622a10.333 10.333 0 0 1 10.333 10.333 10.333 10.333 0 0 1 -10.333 10.334h-21.622a0 0 0 0 1 0 0v-20.667a0 0 0 0 1 0 0z" fill="#48578a" transform="matrix(-1 0 0 -1 53.955 42.667)"/><g fill="#fbced3"><path d="m53.81 100.025c-7.864-2.847-13.636-.041-13.878.08a1.75 1.75 0 1 0 1.565 3.131c.045-.023 4.653-2.263 11.122.08a1.75 1.75 0 0 0 1.191-3.291z"/><path d="m53.81 106.171c-7.864-2.847-13.636-.04-13.878.08a1.75 1.75 0 1 0 1.565 3.131c.045-.023 4.653-2.262 11.122.08a1.75 1.75 0 1 0 1.191-3.291z"/><path d="m75.569 91.708c.045-.023 4.653-2.262 11.122.08a1.75 1.75 0 1 0 1.191-3.288c-7.866-2.847-13.636-.041-13.878.08a1.75 1.75 0 1 0 1.565 3.131z"/><path d="m87.882 94.643c-7.866-2.848-13.636-.04-13.878.08a1.75 1.75 0 0 0 1.565 3.131c.045-.023 4.653-2.262 11.122.08a1.75 1.75 0 1 0 1.191-3.291z"/></g><path d="m43.464 86.256a11.675 11.675 0 0 0 8.171-11.136v-29.677h-16.343v29.677a11.675 11.675 0 0 0 8.172 11.136z" fill="#e1f4fe"/><path d="m35.292 45.443v8.389a9.994 9.994 0 0 0 5.708 1.95c10.642.458 10.527 10.87 10.527 10.87v3.554a3.554 3.554 0 0 0 7.108 0v-24.763z" fill="#9edb2c"/><path d="m51.528 66.653v3.554a3.534 3.534 0 0 0 .107.83v-25.594h-16.343v8.389a9.994 9.994 0 0 0 5.708 1.95c10.642.458 10.528 10.871 10.528 10.871z" fill="#c4e83b"/><path d="m77.7 74.859a11.672 11.672 0 0 0 8.338-11.182v-29.677h-16.673v29.677a11.672 11.672 0 0 0 8.335 11.182z" fill="#e1f4fe"/><path d="m72.919 62.317a3.554 3.554 0 0 0 3.554-3.554v-3.553s-.107-9.777 9.569-10.8v-10.41h-16.677v24.764a3.554 3.554 0 0 0 3.554 3.553z" fill="#f86197"/><path d="m11.682 17.667a10.328 10.328 0 0 0 9.651 6.667h21.622v-13.334h-21.622a10.328 10.328 0 0 0 -9.651 6.667z" fill="#62739a"/><path d="m117 24.208-17-2.875v3.25l17 3z" fill="#48578a"/><path d="m42.955 21.333h57.045v3.25h-57.045z" fill="#bcddfe" transform="matrix(-1 0 0 -1 142.955 45.917)"/></svg>