<svg id="Layer_1" height="512" viewBox="0 0 128 128" width="512" xmlns="http://www.w3.org/2000/svg" data-name="Layer 1"><g fill="#48578a"><path d="m95.669 42.583a1.75 1.75 0 0 0 -1.75 1.75v42.928a1.75 1.75 0 0 0 3.5 0v-42.928a1.75 1.75 0 0 0 -1.75-1.75z"/><path d="m91.29 13.176h-6.25a1.75 1.75 0 0 0 0 3.5h6.25a1.75 1.75 0 0 0 0-3.5z"/><path d="m91.29 19.546h-6.25a1.75 1.75 0 0 0 0 3.5h6.25a1.75 1.75 0 0 0 0-3.5z"/><path d="m91.29 25.917h-6.25a1.75 1.75 0 0 0 0 3.5h6.25a1.75 1.75 0 0 0 0-3.5z"/><path d="m91.29 32.287h-6.25a1.75 1.75 0 0 0 0 3.5h6.25a1.75 1.75 0 0 0 0-3.5z"/><path d="m91.29 38.657h-6.25a1.75 1.75 0 0 0 0 3.5h6.25a1.75 1.75 0 0 0 0-3.5z"/><path d="m100.049 16.676h6.25a1.75 1.75 0 0 0 0-3.5h-6.25a1.75 1.75 0 0 0 0 3.5z"/><path d="m106.3 19.546h-6.25a1.75 1.75 0 0 0 0 3.5h6.25a1.75 1.75 0 0 0 0-3.5z"/><path d="m106.3 25.917h-6.25a1.75 1.75 0 0 0 0 3.5h6.25a1.75 1.75 0 0 0 0-3.5z"/><path d="m106.3 32.287h-6.25a1.75 1.75 0 0 0 0 3.5h6.25a1.75 1.75 0 0 0 0-3.5z"/><path d="m106.3 38.657h-6.25a1.75 1.75 0 0 0 0 3.5h6.25a1.75 1.75 0 0 0 0-3.5z"/></g><path d="m31.182 11c-9.136 0-15.273 2-18.523 3.448a2.819 2.819 0 0 0 -1.259 4.011l12.4 21.034h14.759l12.409-21.034a2.819 2.819 0 0 0 -1.268-4.011c-3.245-1.448-9.383-3.448-18.518-3.448z" fill="#62739a"/><path d="m49.7 14.448c-3.245-1.448-9.383-3.448-18.518-3.448s-15.273 2-18.523 3.448c21.987-8.217 19.982 25.029 19.981 25.045h5.919l12.409-21.034a2.819 2.819 0 0 0 -1.268-4.011z" fill="#48578a"/><path d="m27.973 41.243a1.75 1.75 0 0 1 -1.75-1.75v-15.459a1.75 1.75 0 0 1 3.5 0v15.459a1.75 1.75 0 0 1 -1.75 1.75z" fill="#48578a"/><path d="m34.39 41.243a1.75 1.75 0 0 1 -1.75-1.75v-9.834a1.75 1.75 0 0 1 3.5 0v9.834a1.75 1.75 0 0 1 -1.75 1.75z" fill="#62739a"/><path d="m31.182 117a4.5 4.5 0 0 1 -4.5-4.321l-2.882-73.186h14.759l-2.883 73.186a4.5 4.5 0 0 1 -4.494 4.321z" fill="#9edb2c"/><path d="m37.771 59.506.365-9.268h-13.909l.365 9.268z" fill="#bcddfe"/><path d="m51.045 64.747h24.014v13.875h-24.014z" fill="#f86197"/><path d="m47.74 78.621h30.625v38.361h-30.625z" fill="#62739a"/><path d="m51.045 57.143h24.014v7.604h-24.014z" fill="#62739a"/><path d="m71.445 57.143h-16.785v-30.79l16.785 15.42z" fill="#f86197"/><rect fill="#62739a" height="33.333" rx="4.38" width="8.759" x="91.29" y="11"/><path d="m85.383 87.26h20.574v29.74h-20.574z" fill="#fdb556"/><path d="m28.222 115.87a4.472 4.472 0 0 0 1.535-3.192l2.883-73.185h-8.84l2.883 73.186a4.472 4.472 0 0 0 1.539 3.191z" fill="#c4e83b"/><path d="m32.216 50.238h-7.989l.255 6.469.11 2.799h7.259z" fill="#e1f4fe"/><path d="m66.667 78.621h11.698v38.361h-11.698z" fill="#48578a"/><path d="m64 64.747h11.059v13.875h-11.059z" fill="#d75288"/><path d="m64 57.143h11.059v7.604h-11.059z" fill="#48578a"/><path d="m66.907 37.6c-.927-2.311-1.844-4.229-1.844-4.229l-10.4-5.708a32.432 32.432 0 0 0 8.392 14.266v15.21h8.393v-15.366z" fill="#d75288"/><ellipse cx="63.052" cy="34.129" fill="#f86197" rx="3.341" ry="11.489" transform="matrix(.707 -.707 .707 .707 -5.665 54.581)"/><path d="m97.419 87.26h8.537v29.74h-8.537z" fill="#fd9025"/><path d="m117 118.732h-106a1.75 1.75 0 0 1 0-3.5h106a1.75 1.75 0 0 1 0 3.5z" fill="#48578a"/></svg>