<svg id="Layer_1" height="512" viewBox="0 0 128 128" width="512" xmlns="http://www.w3.org/2000/svg" data-name="Layer 1"><path d="m106.635 24.347c0 7.371-5.975 20.82-13.347 20.82s-13.346-13.449-13.346-20.82a13.347 13.347 0 1 1 26.693 0z" fill="#fce4e4"/><path d="m93.288 11a13.269 13.269 0 0 0 -7.788 2.526c10.964.026 9.249 27.307 9.249 27.307a11.643 11.643 0 0 0 4.022 1.857c4.637-4.231 7.867-12.926 7.867-18.343a13.347 13.347 0 0 0 -13.35-13.347z" fill="#fbced3"/><path d="m90.08 42.583a1.75 1.75 0 0 1 -1.75-1.75v-15.458a1.75 1.75 0 0 1 3.5 0v15.458a1.75 1.75 0 0 1 -1.75 1.75z" fill="#fbced3"/><path d="m96.5 42.583a1.75 1.75 0 0 1 -1.75-1.75v-9.833a1.75 1.75 0 0 1 3.5 0v9.833a1.75 1.75 0 0 1 -1.75 1.75z" fill="#fce4e4"/><path d="m27.758 59.411a1.75 1.75 0 0 0 -1.75 1.75v5.678a1.75 1.75 0 0 0 3.5 0v-5.678a1.75 1.75 0 0 0 -1.75-1.75z" fill="#48578a"/><path d="m65.133 59.411a1.75 1.75 0 0 0 -1.75 1.75v5.678a1.75 1.75 0 0 0 3.5 0v-5.678a1.75 1.75 0 0 0 -1.75-1.75z" fill="#48578a"/><path d="m21.365 66.839h50.161v50.161h-50.161z" fill="#62739a"/><path d="m21.365 11h50.161v50.161h-50.161z" fill="#62739a"/><path d="m63.187 11h8.338v50.161h-8.338z" fill="#48578a"/><path d="m63.187 66.839h8.338v50.161h-8.338z" fill="#48578a"/><path d="m21.365 17.5h50.161v37.167h-50.161z" fill="#7be2f6"/><path d="m93.288 117a4.421 4.421 0 0 1 -4.417-4.247l-2.833-71.92h14.5l-2.833 71.92a4.421 4.421 0 0 1 -4.417 4.247z" fill="#d75288"/><path d="m99.764 60.5.358-9.107h-13.668l.359 9.107z" fill="#9edb2c"/><path d="m37.921 54.667h-7.83l15.212-37.152h7.83z" fill="#e1f4fe"/><path d="m47.588 54.667h-4.791l15.212-37.182h4.791z" fill="#e1f4fe"/><path d="m27.758 72.5h8.345v8.345h-8.345z" fill="#fce4e4"/><path d="m42.273 72.5h8.345v8.345h-8.345z" fill="#c4e83b"/><path d="m56.788 72.5h8.345v8.345h-8.345z" fill="#fdb556"/><path d="m27.758 87.506h8.345v8.345h-8.345z" fill="#e1f4fe"/><path d="m42.273 87.506h8.345v8.345h-8.345z" fill="#7be2f6"/><path d="m56.788 87.506h8.345v8.345h-8.345z" fill="#f86197"/><path d="m27.758 102.511h37.375v8.345h-37.375z" fill="#fce4e4"/><path d="m63.187 17.5h8.338v37.167h-8.338z" fill="#36d9f6"/><path d="m60.961 72.5h4.172v8.345h-4.172z" fill="#fd9025"/><path d="m46.446 72.5h4.172v8.345h-4.172z" fill="#9edb2c"/><path d="m31.931 72.5h4.172v8.345h-4.172z" fill="#fbced3"/><path d="m60.961 87.506h4.172v8.345h-4.172z" fill="#d75288"/><path d="m46.446 87.506h4.172v8.345h-4.172z" fill="#36d9f6"/><path d="m31.931 87.506h4.172v8.345h-4.172z" fill="#bcddfe"/><path d="m60.961 102.511h4.172v8.345h-4.172z" fill="#fbced3"/><path d="m90.851 116.265a4.414 4.414 0 0 0 1.98-3.511l2.833-71.92h-9.626l2.833 71.92a4.414 4.414 0 0 0 1.98 3.511z" fill="#f86197"/><path d="m94.889 60.5.358-9.107h-8.793l.359 9.107z" fill="#c4e83b"/></svg>